# xmcd CD database file
#
# Track frame offsets:
#	150
#	14118
#	42584
#	53566
#	121137
#	132689
#	163966
#	185044
#
# Disc length: 2798 seconds
#
# Revision: 0
# Processed by: cddbd v1.5.1PL0 Copyright (c) Steve Scherf et al.
# Submitted via: CDex 1.51
#
DISCID=790aec08
DTITLE=Bolero - A Spanish Collection - Sanctuary 06
DYEAR=2002
DGENRE=New Age
TTITLE0=Espanol El Rio
TTITLE1=Concierro De Aranjuez
TTITLE2=X
TTITLE3=Bolero
TTITLE4=A Spanish Dream
TTITLE5=Recuerdos De La Alhambra
TTITLE6=Liquid Fire
TTITLE7=Amor Flamengo
EXTD=YEAR: 2002
EXTT0=
EXTT1=
EXTT2=
EXTT3=
EXTT4=
EXTT5=
EXTT6=
EXTT7=
PLAYORDER=
